<?xml version="1.0" encoding="us-ascii" standalone="no"?><svg xmlns="http://www.w3.org/2000/svg" xmlns:xlink="http://www.w3.org/1999/xlink" contentStyleType="text/css" height="519px" preserveAspectRatio="none" style="width:212px;height:519px;background:#FFFFFF;" version="1.1" viewBox="0 0 212 519" width="212px" zoomAndPan="magnify"><defs/><g><!--class Model--><g id="elem_Model"><rect codeLine="2" fill="#F1F1F1" height="48" id="Model" rx="2.5" ry="2.5" style="stroke:#181818;stroke-width:0.5;" width="74" x="61" y="7"/><ellipse cx="76" cy="23" fill="#ADD1B2" rx="11" ry="11" style="stroke:#181818;stroke-width:1.0;"/><path d="M78.9688,28.6406 Q78.3906,28.9375 77.75,29.0781 Q77.1094,29.2344 76.4063,29.2344 Q73.9063,29.2344 72.5781,27.5938 Q71.2656,25.9375 71.2656,22.8125 Q71.2656,19.6875 72.5781,18.0313 Q73.9063,16.375 76.4063,16.375 Q77.1094,16.375 77.75,16.5313 Q78.4063,16.6875 78.9688,16.9844 L78.9688,19.7031 Q78.3438,19.125 77.75,18.8594 Q77.1563,18.5781 76.5313,18.5781 Q75.1875,18.5781 74.5,19.6563 Q73.8125,20.7188 73.8125,22.8125 Q73.8125,24.9063 74.5,25.9844 Q75.1875,27.0469 76.5313,27.0469 Q77.1563,27.0469 77.75,26.7813 Q78.3438,26.5 78.9688,25.9219 L78.9688,28.6406 Z " fill="#000000"/><text fill="#000000" font-family="sans-serif" font-size="14" lengthAdjust="spacing" textLength="42" x="90" y="28.432">Model</text><line style="stroke:#181818;stroke-width:0.5;" x1="62" x2="134" y1="39" y2="39"/><line style="stroke:#181818;stroke-width:0.5;" x1="62" x2="134" y1="47" y2="47"/></g><!--class RemoteData--><g id="elem_RemoteData"><rect codeLine="5" fill="#F1F1F1" height="124.2717" id="RemoteData" rx="2.5" ry="2.5" style="stroke:#181818;stroke-width:0.5;" width="114" x="41" y="115"/><ellipse cx="56" cy="131" fill="#EB937F" rx="11" ry="11" style="stroke:#181818;stroke-width:1.0;"/><path d="M60.1094,137 L52.3906,137 L52.3906,124.6094 L60.1094,124.6094 L60.1094,126.7656 L54.8438,126.7656 L54.8438,129.4375 L59.6094,129.4375 L59.6094,131.5938 L54.8438,131.5938 L54.8438,134.8438 L60.1094,134.8438 L60.1094,137 Z " fill="#000000"/><text fill="#000000" font-family="sans-serif" font-size="14" lengthAdjust="spacing" textLength="82" x="70" y="136.432">RemoteData</text><line style="stroke:#181818;stroke-width:0.5;" x1="42" x2="154" y1="147" y2="147"/><text fill="#000000" font-family="sans-serif" font-size="14" lengthAdjust="spacing" textLength="64" x="47" y="165.9659">NotAsked</text><text fill="#000000" font-family="sans-serif" font-size="14" lengthAdjust="spacing" textLength="54" x="47" y="185.0339">Loading</text><text fill="#000000" font-family="sans-serif" font-size="14" lengthAdjust="spacing" textLength="46" x="47" y="204.1018">Failure</text><text fill="#000000" font-family="sans-serif" font-size="14" lengthAdjust="spacing" textLength="53" x="47" y="223.1697">Success</text><line style="stroke:#181818;stroke-width:0.5;" x1="42" x2="154" y1="231.2717" y2="231.2717"/></g><!--class Error--><g id="elem_Error"><rect codeLine="12" fill="#F1F1F1" height="48" id="Error" rx="2.5" ry="2.5" style="stroke:#181818;stroke-width:0.5;" width="66" x="7" y="299"/><ellipse cx="22" cy="315" fill="#ADD1B2" rx="11" ry="11" style="stroke:#181818;stroke-width:1.0;"/><path d="M24.9688,320.6406 Q24.3906,320.9375 23.75,321.0781 Q23.1094,321.2344 22.4063,321.2344 Q19.9063,321.2344 18.5781,319.5938 Q17.2656,317.9375 17.2656,314.8125 Q17.2656,311.6875 18.5781,310.0313 Q19.9063,308.375 22.4063,308.375 Q23.1094,308.375 23.75,308.5313 Q24.4063,308.6875 24.9688,308.9844 L24.9688,311.7031 Q24.3438,311.125 23.75,310.8594 Q23.1563,310.5781 22.5313,310.5781 Q21.1875,310.5781 20.5,311.6563 Q19.8125,312.7188 19.8125,314.8125 Q19.8125,316.9063 20.5,317.9844 Q21.1875,319.0469 22.5313,319.0469 Q23.1563,319.0469 23.75,318.7813 Q24.3438,318.5 24.9688,317.9219 L24.9688,320.6406 Z " fill="#000000"/><text fill="#000000" font-family="sans-serif" font-size="14" lengthAdjust="spacing" textLength="34" x="36" y="320.432">Error</text><line style="stroke:#181818;stroke-width:0.5;" x1="8" x2="72" y1="331" y2="331"/><line style="stroke:#181818;stroke-width:0.5;" x1="8" x2="72" y1="339" y2="339"/></g><!--class Response--><g id="elem_Response"><rect codeLine="15" fill="#F1F1F1" height="48" id="Response" rx="2.5" ry="2.5" style="stroke:#181818;stroke-width:0.5;" width="97" x="108.5" y="299"/><ellipse cx="123.5" cy="315" fill="#ADD1B2" rx="11" ry="11" style="stroke:#181818;stroke-width:1.0;"/><path d="M126.4688,320.6406 Q125.8906,320.9375 125.25,321.0781 Q124.6094,321.2344 123.9063,321.2344 Q121.4063,321.2344 120.0781,319.5938 Q118.7656,317.9375 118.7656,314.8125 Q118.7656,311.6875 120.0781,310.0313 Q121.4063,308.375 123.9063,308.375 Q124.6094,308.375 125.25,308.5313 Q125.9063,308.6875 126.4688,308.9844 L126.4688,311.7031 Q125.8438,311.125 125.25,310.8594 Q124.6563,310.5781 124.0313,310.5781 Q122.6875,310.5781 122,311.6563 Q121.3125,312.7188 121.3125,314.8125 Q121.3125,316.9063 122,317.9844 Q122.6875,319.0469 124.0313,319.0469 Q124.6563,319.0469 125.25,318.7813 Q125.8438,318.5 126.4688,317.9219 L126.4688,320.6406 Z " fill="#000000"/><text fill="#000000" font-family="sans-serif" font-size="14" lengthAdjust="spacing" textLength="65" x="137.5" y="320.432">Response</text><line style="stroke:#181818;stroke-width:0.5;" x1="109.5" x2="204.5" y1="331" y2="331"/><line style="stroke:#181818;stroke-width:0.5;" x1="109.5" x2="204.5" y1="339" y2="339"/></g><!--class Image--><g id="elem_Image"><rect codeLine="18" fill="#F1F1F1" height="105.2038" id="Image" rx="2.5" ry="2.5" style="stroke:#181818;stroke-width:0.5;" width="97" x="108.5" y="407"/><ellipse cx="133.4" cy="423" fill="#ADD1B2" rx="11" ry="11" style="stroke:#181818;stroke-width:1.0;"/><path d="M136.3688,428.6406 Q135.7906,428.9375 135.15,429.0781 Q134.5094,429.2344 133.8063,429.2344 Q131.3063,429.2344 129.9781,427.5938 Q128.6656,425.9375 128.6656,422.8125 Q128.6656,419.6875 129.9781,418.0313 Q131.3063,416.375 133.8063,416.375 Q134.5094,416.375 135.15,416.5313 Q135.8063,416.6875 136.3688,416.9844 L136.3688,419.7031 Q135.7438,419.125 135.15,418.8594 Q134.5563,418.5781 133.9313,418.5781 Q132.5875,418.5781 131.9,419.6563 Q131.2125,420.7188 131.2125,422.8125 Q131.2125,424.9063 131.9,425.9844 Q132.5875,427.0469 133.9313,427.0469 Q134.5563,427.0469 135.15,426.7813 Q135.7438,426.5 136.3688,425.9219 L136.3688,428.6406 Z " fill="#000000"/><text fill="#000000" font-family="sans-serif" font-size="14" lengthAdjust="spacing" textLength="43" x="149.6" y="428.432">Image</text><line style="stroke:#181818;stroke-width:0.5;" x1="109.5" x2="204.5" y1="439" y2="439"/><ellipse cx="119.5" cy="454.034" fill="none" rx="3" ry="3" style="stroke:#038048;stroke-width:1.0;"/><text fill="#000000" font-family="sans-serif" font-size="14" lengthAdjust="spacing" textLength="71" x="128.5" y="457.9659">String title</text><ellipse cx="119.5" cy="473.1019" fill="none" rx="3" ry="3" style="stroke:#038048;stroke-width:1.0;"/><text fill="#000000" font-family="sans-serif" font-size="14" lengthAdjust="spacing" textLength="64" x="128.5" y="477.0339">String url</text><ellipse cx="119.5" cy="492.1698" fill="none" rx="3" ry="3" style="stroke:#038048;stroke-width:1.0;"/><text fill="#000000" font-family="sans-serif" font-size="14" lengthAdjust="spacing" textLength="36" x="128.5" y="496.1018">Int id</text><line style="stroke:#181818;stroke-width:0.5;" x1="109.5" x2="204.5" y1="504.2038" y2="504.2038"/></g><!--link Model to RemoteData--><g id="link_Model_RemoteData"><path codeLine="24" d="M98,55.14 C98,71.28 98,87.62 98,108.7 " fill="none" id="Model-to-RemoteData" style="stroke:#181818;stroke-width:1.0;"/><polygon fill="#181818" points="98,114.7,102,105.7,98,109.7,94,105.7,98,114.7" style="stroke:#181818;stroke-width:1.0;"/><text fill="#000000" font-family="sans-serif" font-size="13" lengthAdjust="spacing" textLength="7" x="90.5734" y="102.9947">1</text></g><!--link RemoteData to Error--><g id="link_RemoteData_Error"><path codeLine="25" d="M73.4,239.07 C64.88,260.23 58.0802,277.1039 51.5602,293.3039 " fill="none" id="RemoteData-to-Error" style="stroke:#181818;stroke-width:1.0;"/><polygon fill="#181818" points="49.32,298.87,56.391,292.0143,51.1868,294.2316,48.9695,289.0274,49.32,298.87" style="stroke:#181818;stroke-width:1.0;"/><text fill="#000000" font-family="sans-serif" font-size="13" lengthAdjust="spacing" textLength="20" x="29.1373" y="287.0926">0..1</text></g><!--link RemoteData to Response--><g id="link_RemoteData_Response"><path codeLine="26" d="M123.02,239.07 C131.69,260.23 138.6174,277.117 145.2474,293.317 " fill="none" id="RemoteData-to-Response" style="stroke:#181818;stroke-width:1.0;"/><polygon fill="#181818" points="147.52,298.87,147.8131,289.0255,145.6262,294.2425,140.4091,292.0556,147.52,298.87" style="stroke:#181818;stroke-width:1.0;"/><text fill="#000000" font-family="sans-serif" font-size="13" lengthAdjust="spacing" textLength="20" x="122.2847" y="287.0926">0..1</text></g><!--link Response to Image--><g id="link_Response_Image"><path codeLine="27" d="M157,347.12 C157,363.57 157,380.32 157,400.98 " fill="none" id="Response-to-Image" style="stroke:#181818;stroke-width:1.0;"/><polygon fill="#181818" points="157,406.98,161,397.98,157,401.98,153,397.98,157,406.98" style="stroke:#181818;stroke-width:1.0;"/><text fill="#000000" font-family="sans-serif" font-size="13" lengthAdjust="spacing" textLength="20" x="135.5938" y="395.3314">0..*</text></g><!--SRC=[TOx12i8m38RlVOgmexAXBo08AWpKm_O4fGsZsBMZJK_YkzkbJ7enf-J_ap-ViZ96U7YD5jxY8mIwDCE0ioUyI99PX5nFJ-VuGit3tKjjtCJzJHgR0d8_9gKmnZL5SUmr11zAR146Z8jt4Mkjd-M4_6OF8uKS36J8OYsaO7di7O7HwsqXRjiJDCUcuXKLEhk7hiiBJFB7sw34ZsupTqsX4ry0]--></g></svg>