<?xml version="1.0" encoding="us-ascii" standalone="no"?><svg xmlns="http://www.w3.org/2000/svg" xmlns:xlink="http://www.w3.org/1999/xlink" contentStyleType="text/css" height="324px" preserveAspectRatio="none" style="width:522px;height:324px;background:#FFFFFF;" version="1.1" viewBox="0 0 522 324" width="522px" zoomAndPan="magnify"><defs/><g><line style="stroke:#181818;stroke-width:0.5;stroke-dasharray:5.0,5.0;" x1="33" x2="33" y1="84.0679" y2="241.186"/><line style="stroke:#181818;stroke-width:0.5;stroke-dasharray:5.0,5.0;" x1="176" x2="176" y1="84.0679" y2="241.186"/><line style="stroke:#181818;stroke-width:0.5;stroke-dasharray:5.0,5.0;" x1="338.5" x2="338.5" y1="84.0679" y2="241.186"/><line style="stroke:#181818;stroke-width:0.5;stroke-dasharray:5.0,5.0;" x1="470" x2="470" y1="84.0679" y2="241.186"/><text fill="#000000" font-family="sans-serif" font-size="14" lengthAdjust="spacing" textLength="51" x="5" y="79.9659">Visitor</text><ellipse cx="33.5" cy="13.5" fill="#E2E2F0" rx="8" ry="8" style="stroke:#181818;stroke-width:0.5;"/><path d="M33.5,21.5 L33.5,48.5 M20.5,29.5 L46.5,29.5 M33.5,48.5 L20.5,63.5 M33.5,48.5 L46.5,63.5 " fill="none" style="stroke:#181818;stroke-width:0.5;"/><text fill="#000000" font-family="sans-serif" font-size="14" lengthAdjust="spacing" textLength="51" x="5" y="255.1519">Visitor</text><ellipse cx="33.5" cy="267.7539" fill="#E2E2F0" rx="8" ry="8" style="stroke:#181818;stroke-width:0.5;"/><path d="M33.5,275.7539 L33.5,302.7539 M20.5,283.7539 L46.5,283.7539 M33.5,302.7539 L20.5,317.7539 M33.5,302.7539 L46.5,317.7539 " fill="none" style="stroke:#181818;stroke-width:0.5;"/><rect fill="#E2E2F0" height="33.0679" rx="2.5" ry="2.5" style="stroke:#181818;stroke-width:0.5;" width="123" x="115" y="50"/><text fill="#000000" font-family="sans-serif" font-size="14" lengthAdjust="spacing" textLength="109" x="122" y="71.9659">Web application</text><rect fill="#E2E2F0" height="33.0679" rx="2.5" ry="2.5" style="stroke:#181818;stroke-width:0.5;" width="123" x="115" y="240.186"/><text fill="#000000" font-family="sans-serif" font-size="14" lengthAdjust="spacing" textLength="109" x="122" y="262.1519">Web application</text><rect fill="#E2E2F0" height="33.0679" rx="2.5" ry="2.5" style="stroke:#181818;stroke-width:0.5;" width="100" x="288.5" y="50"/><text fill="#000000" font-family="sans-serif" font-size="14" lengthAdjust="spacing" textLength="86" x="295.5" y="71.9659">PostGraphile</text><rect fill="#E2E2F0" height="33.0679" rx="2.5" ry="2.5" style="stroke:#181818;stroke-width:0.5;" width="100" x="288.5" y="240.186"/><text fill="#000000" font-family="sans-serif" font-size="14" lengthAdjust="spacing" textLength="86" x="295.5" y="262.1519">PostGraphile</text><rect fill="#E2E2F0" height="33.0679" rx="2.5" ry="2.5" style="stroke:#181818;stroke-width:0.5;" width="91" x="425" y="50"/><text fill="#000000" font-family="sans-serif" font-size="14" lengthAdjust="spacing" textLength="77" x="432" y="71.9659">PostgreSQL</text><rect fill="#E2E2F0" height="33.0679" rx="2.5" ry="2.5" style="stroke:#181818;stroke-width:0.5;" width="91" x="425" y="240.186"/><text fill="#000000" font-family="sans-serif" font-size="14" lengthAdjust="spacing" textLength="77" x="432" y="262.1519">PostgreSQL</text><polygon fill="#181818" points="164.5,113.7739,174.5,117.7739,164.5,121.7739,168.5,117.7739" style="stroke:#181818;stroke-width:1.0;"/><line style="stroke:#181818;stroke-width:1.0;" x1="33.5" x2="170.5" y1="117.7739" y2="117.7739"/><text fill="#000000" font-family="sans-serif" font-size="13" lengthAdjust="spacing" textLength="119" x="40.5" y="111.9649">Visit the home page</text><polygon fill="#181818" points="326.5,145.4799,336.5,149.4799,326.5,153.4799,330.5,149.4799" style="stroke:#181818;stroke-width:1.0;"/><line style="stroke:#181818;stroke-width:1.0;" x1="176.5" x2="332.5" y1="149.4799" y2="149.4799"/><text fill="#000000" font-family="sans-serif" font-size="13" lengthAdjust="spacing" textLength="138" x="183.5" y="143.6709">Make a GraphQL query</text><polygon fill="#181818" points="458.5,177.186,468.5,181.186,458.5,185.186,462.5,181.186" style="stroke:#181818;stroke-width:1.0;"/><line style="stroke:#181818;stroke-width:1.0;" x1="338.5" x2="464.5" y1="181.186" y2="181.186"/><text fill="#000000" font-family="sans-serif" font-size="13" lengthAdjust="spacing" textLength="108" x="345.5" y="175.377">Make a SQL query</text><polygon fill="#181818" points="349.5,191.186,339.5,195.186,349.5,199.186,345.5,195.186" style="stroke:#181818;stroke-width:1.0;"/><line style="stroke:#181818;stroke-width:1.0;stroke-dasharray:2.0,2.0;" x1="343.5" x2="469.5" y1="195.186" y2="195.186"/><polygon fill="#181818" points="187.5,205.186,177.5,209.186,187.5,213.186,183.5,209.186" style="stroke:#181818;stroke-width:1.0;"/><line style="stroke:#181818;stroke-width:1.0;stroke-dasharray:2.0,2.0;" x1="181.5" x2="337.5" y1="209.186" y2="209.186"/><polygon fill="#181818" points="44.5,219.186,34.5,223.186,44.5,227.186,40.5,223.186" style="stroke:#181818;stroke-width:1.0;"/><line style="stroke:#181818;stroke-width:1.0;stroke-dasharray:2.0,2.0;" x1="38.5" x2="175.5" y1="223.186" y2="223.186"/><!--SRC=[LO-n3i8m34JtV8NLFJ_G8IjBaQWgmMmggx4eJN3SeNzFb8YAZBvxTxPnrY1mvyHAkvY8eZnpn4sXUz0JCCQLPrGEMmUO86l6_73hyjZNDAWdyE5D474XamthRY7fHJ1wNgc7Axu848em3l3PIGxpZzJ08ZIDmubF3LfDsrQt9UMeij-wywyl]--></g></svg>