<?xml version="1.0" encoding="us-ascii" standalone="no"?><svg xmlns="http://www.w3.org/2000/svg" xmlns:xlink="http://www.w3.org/1999/xlink" contentStyleType="text/css" height="197px" preserveAspectRatio="none" style="width:820px;height:197px;background:#FFFFFF;" version="1.1" viewBox="0 0 820 197" width="820px" zoomAndPan="magnify"><defs/><g><!--entity Visitor--><g id="elem_Visitor"><ellipse cx="112.5" cy="14" fill="#F1F1F1" rx="8" ry="8" style="stroke:#181818;stroke-width:0.5;"/><path d="M112.5,22 L112.5,49 M99.5,30 L125.5,30 M112.5,49 L99.5,64 M112.5,49 L125.5,64 " fill="none" style="stroke:#181818;stroke-width:0.5;"/><text fill="#000000" font-family="sans-serif" font-size="14" lengthAdjust="spacing" textLength="51" x="87" y="80.4659">Visitor</text></g><!--entity Editor--><g id="elem_Editor"><ellipse cx="525.5" cy="14" fill="#F1F1F1" rx="8" ry="8" style="stroke:#181818;stroke-width:0.5;"/><path d="M525.5,22 L525.5,49 M512.5,30 L538.5,30 M525.5,49 L512.5,64 M525.5,49 L538.5,64 " fill="none" style="stroke:#181818;stroke-width:0.5;"/><text fill="#000000" font-family="sans-serif" font-size="14" lengthAdjust="spacing" textLength="40" x="505.5" y="80.4659">Editor</text></g><g id="elem_Add an image"><ellipse cx="330.3836" cy="168.1767" fill="#F1F1F1" rx="76.3836" ry="17.6767" style="stroke:#181818;stroke-width:0.5;"/><text fill="#000000" font-family="sans-serif" font-size="14" lengthAdjust="spacing" textLength="93" x="280.8836" y="172.9097">Add an image</text></g><g id="elem_Modify an image"><ellipse cx="525.4683" cy="168.0937" fill="#F1F1F1" rx="83.4683" ry="19.0937" style="stroke:#181818;stroke-width:0.5;"/><text fill="#000000" font-family="sans-serif" font-size="14" lengthAdjust="spacing" textLength="113" x="465.9683" y="172.8266">Modify an image</text></g><g id="elem_Remove an image"><ellipse cx="729.4582" cy="167.8916" fill="#F1F1F1" rx="84.9582" ry="19.3916" style="stroke:#181818;stroke-width:0.5;"/><text fill="#000000" font-family="sans-serif" font-size="14" lengthAdjust="spacing" textLength="117" x="667.9582" y="172.6246">Remove an image</text></g><g id="elem_See the list of the images"><ellipse cx="112.3388" cy="168.1678" fill="#F1F1F1" rx="106.3388" ry="23.6678" style="stroke:#181818;stroke-width:0.5;"/><text fill="#000000" font-family="sans-serif" font-size="14" lengthAdjust="spacing" textLength="170" x="24.3388" y="172.9007">See the list of the images</text></g><!--link Editor to Add an image--><g id="link_Editor_Add an image"><path d="M505.37,58.49 C469.56,80.71 399.9886,123.887 360.8186,148.187 " fill="none" id="Editor-to-Add an image" style="stroke:#181818;stroke-width:1.0;"/><polygon fill="#181818" points="355.72,151.35,365.4765,150.0045,359.9688,148.7142,361.2592,143.2064,355.72,151.35" style="stroke:#181818;stroke-width:1.0;"/></g><!--link Editor to Modify an image--><g id="link_Editor_Modify an image"><path d="M525.5,84.62 C525.5,106.2 525.5,126.07 525.5,142.99 " fill="none" id="Editor-to-Modify an image" style="stroke:#181818;stroke-width:1.0;"/><polygon fill="#181818" points="525.5,148.99,529.5,139.99,525.5,143.99,521.5,139.99,525.5,148.99" style="stroke:#181818;stroke-width:1.0;"/></g><!--link Editor to Remove an image--><g id="link_Editor_Remove an image"><path d="M545.81,58.04 C582.09,79.56 652.9989,121.63 694.9789,146.52 " fill="none" id="Editor-to-Remove an image" style="stroke:#181818;stroke-width:1.0;"/><polygon fill="#181818" points="700.14,149.58,694.4384,141.5493,695.8391,147.03,690.3584,148.4307,700.14,149.58" style="stroke:#181818;stroke-width:1.0;"/></g><!--link Visitor to See the list of the images--><g id="link_Visitor_See the list of the images"><path d="M112.5,84.62 C112.5,104.26 112.5,121.46 112.5,138.23 " fill="none" id="Visitor-to-See the list of the images" style="stroke:#181818;stroke-width:1.0;"/><polygon fill="#181818" points="112.5,144.23,116.5,135.23,112.5,139.23,108.5,135.23,112.5,144.23" style="stroke:#181818;stroke-width:1.0;"/></g><!--SRC=[IqmkoIzI2CiipYn9BItYIWHpNLCoWHGN5uHMqDMrKz18J4bHICnJoCnDJ4_LH979pK_9JAl48LcKcfjVbeea2RCA8XsScgfGaf6ga9DPNAAGdmPcWnKMQt810000]--></g></svg>